<svg width="25" height="24" viewBox="0 0 25 24" fill="none" xmlns="http://www.w3.org/2000/svg">
<path d="M18.3429 11.7097V12.2903C18.3429 12.6097 18.0834 12.871 17.7662 12.871H13.0567V17.6129C13.0567 17.9323 12.7972 18.1935 12.4801 18.1935H11.9034C11.5862 18.1935 11.3267 17.9323 11.3267 17.6129V12.871H6.61727C6.30011 12.871 6.04061 12.6097 6.04061 12.2903V11.7097C6.04061 11.3903 6.30011 11.129 6.61727 11.129H11.3267V6.3871C11.3267 6.06774 11.5862 5.80645 11.9034 5.80645H12.4801C12.7972 5.80645 13.0567 6.06774 13.0567 6.3871V11.129H17.7662C18.0834 11.129 18.3429 11.3903 18.3429 11.7097ZM24.1095 12C24.1095 18.629 18.7754 24 12.1917 24C5.6081 24 0.273926 18.629 0.273926 12C0.273926 5.37097 5.6081 0 12.1917 0C18.7754 0 24.1095 5.37097 24.1095 12ZM22.5718 12C22.5718 6.19839 17.8959 1.54839 12.1917 1.54839C6.42986 1.54839 1.81171 6.25645 1.81171 12C1.81171 17.8016 6.48752 22.4516 12.1917 22.4516C17.9536 22.4516 22.5718 17.7435 22.5718 12Z" fill="#34394F"/>
</svg>
