<svg width="25" height="24" viewBox="0 0 25 24" fill="none" xmlns="http://www.w3.org/2000/svg">
<path d="M7.23397 12.871C6.91681 12.871 6.65731 12.6097 6.65731 12.2903V11.7097C6.65731 11.3903 6.91681 11.129 7.23397 11.129H18.3829C18.7001 11.129 18.9596 11.3903 18.9596 11.7097V12.2903C18.9596 12.6097 18.7001 12.871 18.3829 12.871H7.23397ZM24.7262 12C24.7262 18.629 19.3921 24 12.8084 24C6.22481 24 0.890625 18.629 0.890625 12C0.890625 5.37097 6.22481 0 12.8084 0C19.3921 0 24.7262 5.37097 24.7262 12ZM23.1885 12C23.1885 6.19839 18.5126 1.54839 12.8084 1.54839C7.04656 1.54839 2.42841 6.25645 2.42841 12C2.42841 17.8016 7.10422 22.4516 12.8084 22.4516C18.5703 22.4516 23.1885 17.7435 23.1885 12Z" fill="#34394F"/>
</svg>
